<svg width="40" height="40" viewBox="0 0 40 40" fill="none" xmlns="http://www.w3.org/2000/svg">
<rect width="40" height="40" rx="4" fill="#0083C8"/>
<path d="M21.7227 6.80769C25.0366 8.05037 22.9655 19.2346 20.8943 22.9626C27.9362 22.5484 29.1788 24.2053 29.5931 25.448C28.7647 27.9334 15.6932 32.0976 15.095 24.6195C14.2667 14.2638 18.0637 5.43559 21.7227 6.80769Z" fill="white"/>
<path fill-rule="evenodd" clip-rule="evenodd" d="M13.4134 25.9883C13.8013 25.7458 14.3125 25.8638 14.555 26.2518L16.6261 29.5656C16.8686 29.9536 16.7507 30.4647 16.3627 30.7072C15.9747 30.9497 15.4635 30.8318 15.221 30.4438L13.1499 27.13C12.9074 26.742 13.0254 26.2308 13.4134 25.9883Z" fill="white"/>
<path fill-rule="evenodd" clip-rule="evenodd" d="M11.3218 23.1019C11.7025 22.8481 12.2169 22.9509 12.4707 23.3316L13.2991 24.5743C13.5529 24.955 13.4501 25.4694 13.0694 25.7232C12.6887 25.977 12.1743 25.8741 11.9205 25.4934L11.092 24.2507C10.8382 23.87 10.9411 23.3557 11.3218 23.1019Z" fill="white"/>
</svg>
