<svg width="110" height="110" viewBox="0 0 110 110" fill="none" xmlns="http://www.w3.org/2000/svg">
<rect width="110" height="110" rx="4" fill="#0083C8"/>
<path d="M59.7365 18.7213C68.8497 22.1387 63.1541 52.8951 57.4583 63.1473C76.8235 62.0082 80.2409 66.5647 81.38 69.9821C79.1019 76.8169 43.1555 88.2686 41.5104 67.7038C39.2324 39.2256 49.6742 14.948 59.7365 18.7213Z" fill="white"/>
<path fill-rule="evenodd" clip-rule="evenodd" d="M36.8865 71.4667C37.9535 70.7999 39.3591 71.1242 40.026 72.1912L45.7216 81.3042C46.3885 82.3712 46.0641 83.7768 44.9971 84.4437C43.9301 85.1105 42.5245 84.7862 41.8577 83.7192L36.162 74.6062C35.4952 73.5392 35.8195 72.1336 36.8865 71.4667Z" fill="white"/>
<path fill-rule="evenodd" clip-rule="evenodd" d="M31.1339 63.5294C32.1808 62.8314 33.5953 63.1143 34.2933 64.1612L36.5715 67.5786C37.2695 68.6255 36.9866 70.04 35.9396 70.738C34.8927 71.4359 33.4782 71.153 32.7803 70.1061L30.502 66.6887C29.8041 65.6418 30.087 64.2273 31.1339 63.5294Z" fill="white"/>
</svg>
